<svg width="66" height="66" viewBox="0 0 66 66" fill="none" xmlns="http://www.w3.org/2000/svg">
<g clip-path="url(#clip0_2097_557)">
<path d="M41.1432 23.2234C40.783 23.2234 40.431 23.3302 40.1316 23.5303C39.8321 23.7303 39.5988 24.0147 39.4609 24.3474C39.3231 24.6801 39.2871 25.0462 39.3573 25.3994C39.4276 25.7526 39.601 26.0771 39.8557 26.3317C40.1103 26.5864 40.4347 26.7598 40.7879 26.83C41.1411 26.9003 41.5072 26.8642 41.84 26.7264C42.1727 26.5886 42.457 26.3552 42.6571 26.0558C42.8572 25.7564 42.964 25.4043 42.964 25.0442C42.964 24.5613 42.7721 24.0982 42.4307 23.7567C42.0892 23.4152 41.6261 23.2234 41.1432 23.2234ZM33.0458 25.5592C31.5329 25.5592 30.054 26.0078 28.7961 26.8483C27.5381 27.6888 26.5577 28.8835 25.9788 30.2812C25.3998 31.6789 25.2483 33.217 25.5435 34.7008C25.8386 36.1846 26.5671 37.5476 27.6369 38.6174C28.7067 39.6871 30.0697 40.4157 31.5535 40.7108C33.0373 41.006 34.5753 40.8545 35.9731 40.2755C37.3708 39.6966 38.5655 38.7161 39.406 37.4582C40.2465 36.2003 40.6951 34.7214 40.6951 33.2085C40.6926 31.1805 39.8859 29.2364 38.4519 27.8024C37.0179 26.3684 35.0738 25.5617 33.0458 25.5592ZM33.0458 38.1095C32.0764 38.1098 31.1287 37.8226 30.3226 37.2842C29.5164 36.7458 28.888 35.9805 28.5169 35.085C28.1457 34.1894 28.0485 33.204 28.2374 32.2532C28.4264 31.3024 28.893 30.429 29.5784 29.7434C30.2638 29.0579 31.1371 28.5909 32.0878 28.4017C33.0385 28.2125 34.024 28.3095 34.9197 28.6804C35.8153 29.0513 36.5808 29.6795 37.1194 30.4855C37.658 31.2915 37.9455 32.2391 37.9455 33.2085C37.9444 34.5077 37.4279 35.7535 36.5093 36.6724C35.5907 37.5912 34.3451 38.1081 33.0458 38.1095Z" fill="#FCFCFC"/>
<path d="M39.1184 48.7409H26.7156C24.2418 48.738 21.8701 47.7541 20.1209 46.0048C18.3716 44.2556 17.3877 41.8839 17.3848 39.4101V27.0073C17.3877 24.5335 18.3716 22.1619 20.1209 20.4126C21.8701 18.6634 24.2418 17.6794 26.7156 17.6765H39.1184C41.5922 17.6794 43.9638 18.6634 45.7131 20.4126C47.4623 22.1619 48.4463 24.5335 48.4492 27.0073V39.4101C48.4463 41.8839 47.4623 44.2556 45.7131 46.0048C43.9638 47.7541 41.5922 48.738 39.1184 48.7409ZM26.7156 20.6024C25.0171 20.6056 23.3892 21.2818 22.1882 22.4827C20.9873 23.6837 20.3111 25.3116 20.3079 27.01V39.4129C20.3111 41.1113 20.9873 42.7392 22.1882 43.9402C23.3892 45.1412 25.0171 45.8173 26.7156 45.8205H39.1184C40.817 45.8177 42.4453 45.1417 43.6466 43.9407C44.8479 42.7397 45.5242 41.1115 45.5274 39.4129V27.01C45.5242 25.3114 44.8479 23.6833 43.6466 22.4822C42.4453 21.2812 40.817 20.6053 39.1184 20.6024H26.7156Z" fill="#FCFCFC"/>
</g>
<defs>
<clipPath id="clip0_2097_557">
<rect width="65.5656" height="65.5656" fill="white" transform="translate(0.15625 0.427002)"/>
</clipPath>
</defs>
</svg>
