<svg width="66" height="66" viewBox="0 0 66 66" fill="none" xmlns="http://www.w3.org/2000/svg">
<g clip-path="url(#clip0_2097_561)">
<path fill-rule="evenodd" clip-rule="evenodd" d="M42.9366 20.0435C41.8438 20.5394 29.5339 26.2982 19.5078 30.9643C19.1308 31.145 18.8106 31.4258 18.5822 31.776C18.3539 32.1263 18.2261 32.5325 18.2129 32.9504C18.2126 33.3124 18.343 33.6624 18.5802 33.936C18.8173 34.2095 19.1453 34.3883 19.5037 34.4393C20.0993 34.539 26.0603 35.4323 26.0603 35.4323L27.7431 45.3628L28.6365 40.9917L27.3456 34.4352L39.4575 25.5005L29.5298 36.4213L33.0048 40.3921C33.2028 40.5901 37.4728 45.554 37.7706 45.8559C38.2664 46.3517 39.0614 47.3448 39.4589 47.3448C40.1541 47.3448 40.8494 46.3517 41.1472 44.8628C41.445 43.4723 43.4311 33.8437 45.913 21.0366C46.2149 19.6474 44.9186 19.0519 42.9366 20.0435Z" fill="#FCFCFC"/>
</g>
<defs>
<clipPath id="clip0_2097_561">
<rect width="65.5656" height="65.5656" fill="white" transform="translate(0.433594 0.427002)"/>
</clipPath>
</defs>
</svg>
