<svg width="67" height="66" viewBox="0 0 67 66" fill="none" xmlns="http://www.w3.org/2000/svg">
<g clip-path="url(#clip0_2097_564)">
<path d="M50.6522 22.8545C49.5229 23.3392 48.3363 23.6775 47.1212 23.8612C47.6895 23.7655 48.5227 22.737 48.8573 22.3217C49.3797 21.6897 49.7773 20.9643 50.0293 20.184C50.0607 20.1226 50.0826 20.0474 50.0225 20.001C49.9924 19.9882 49.9597 19.9828 49.9271 19.9855C49.8945 19.9881 49.863 19.9986 49.8354 20.016C48.5117 20.7227 47.1047 21.2609 45.6474 21.6183C45.5971 21.6348 45.5431 21.6364 45.4919 21.6228C45.4407 21.6092 45.3946 21.5811 45.3592 21.5418C45.2469 21.4078 45.1245 21.2827 44.9931 21.1675C44.3883 20.6463 43.7033 20.2261 42.9646 19.9231C41.9782 19.5246 40.9146 19.3537 39.853 19.4232C38.8219 19.4928 37.8165 19.7766 36.9012 20.2564C35.9836 20.7362 35.1735 21.398 34.5203 22.2015C33.8433 23.0351 33.3578 24.0074 33.0984 25.0495C32.8766 26.0366 32.8511 27.0577 33.0233 28.0546C33.0465 28.224 33.0315 28.2459 32.8798 28.224C27.3392 27.6594 22.2084 25.0483 18.4909 20.9011C18.3229 20.7099 18.2328 20.7099 18.0948 20.9162C17.3475 22.2958 17.0649 23.8796 17.2891 25.4326C17.5132 26.9855 18.2322 28.4247 19.3392 29.5367C19.6206 29.8099 19.9115 30.0708 20.2229 30.3153C19.2553 30.242 18.3119 29.9774 17.4473 29.5367C17.2793 29.4301 17.1946 29.4916 17.1741 29.6815C17.1638 29.9555 17.1788 30.2298 17.2192 30.501C17.3885 31.7963 17.8987 33.0233 18.6976 34.0567C19.4966 35.0902 20.5556 35.8929 21.7665 36.3828C22.0623 36.5111 22.3716 36.606 22.6885 36.6656C21.7915 36.8446 20.871 36.8728 19.9648 36.7489C19.7667 36.7107 19.6916 36.8104 19.7667 37.0002C20.2327 38.2204 21.0028 39.3011 22.0041 40.1398C23.0053 40.9785 24.2044 41.5472 25.4873 41.792C25.7468 41.8371 26.0064 41.8371 26.2659 41.8972C26.2509 41.9218 26.2345 41.9218 26.2195 41.9436C25.5775 42.923 23.351 43.6524 22.3128 44.0144C20.4129 44.6925 18.3887 44.9516 16.3792 44.7739C16.0595 44.7274 15.9926 44.7301 15.9065 44.7739C15.8205 44.8176 15.8956 44.9105 15.9981 44.9869C16.4078 45.2601 16.8176 45.491 17.2274 45.7191C18.4861 46.3908 19.8144 46.923 21.1887 47.3063C28.3176 49.2747 36.3507 47.8281 41.6998 42.5105C45.9028 38.3348 47.3767 32.5746 47.3767 26.8021C47.3767 26.5767 47.6498 26.4524 47.8001 26.3322C48.8672 25.5053 49.8078 24.527 50.5921 23.4282C50.7154 23.2693 50.7809 23.0732 50.7779 22.8722V22.8422C50.7956 22.7616 50.7929 22.7903 50.6522 22.8545Z" fill="#FCFCFC"/>
</g>
<defs>
<clipPath id="clip0_2097_564">
<rect width="65.5656" height="65.5656" fill="white" transform="translate(0.730469 0.427002)"/>
</clipPath>
</defs>
</svg>
