<svg width="66" height="66" viewBox="0 0 66 66" fill="none" xmlns="http://www.w3.org/2000/svg">
<g clip-path="url(#clip0_2097_567)">
<path d="M52.2273 28.3118C52.2273 25.9878 51.3041 23.759 49.6608 22.1157C48.0175 20.4724 45.7887 19.5492 43.4647 19.5492H21.0536C18.7296 19.5492 16.5008 20.4724 14.8575 22.1157C13.2142 23.759 12.291 25.9878 12.291 28.3118V38.7394C12.291 41.0634 13.2142 43.2922 14.8575 44.9355C16.5008 46.5788 18.7296 47.502 21.0536 47.502H43.4633C44.614 47.502 45.7535 47.2753 46.8166 46.835C47.8797 46.3946 48.8457 45.7492 49.6594 44.9355C50.4731 44.1218 51.1185 43.1558 51.5589 42.0927C51.9992 41.0296 52.2259 39.8901 52.2259 38.7394L52.2273 28.3118ZM39.0486 34.3069L29.0007 39.279C28.6059 39.4921 27.2673 39.2066 27.2673 38.7585V28.5535C27.2673 28.0987 28.6168 27.8146 29.0116 28.0399L38.6306 33.2729C39.0322 33.5037 39.4556 34.087 39.0486 34.3069Z" fill="#FCFCFC"/>
</g>
<defs>
<clipPath id="clip0_2097_567">
<rect width="65.5656" height="65.5656" fill="white" transform="translate(0.0078125 0.427002)"/>
</clipPath>
</defs>
</svg>
