<svg width="25" height="19" viewBox="0 0 25 19" fill="none" xmlns="http://www.w3.org/2000/svg">
<path d="M1.5 16.2432H23.5C23.8314 16.2432 24.1494 16.3742 24.3838 16.6084C24.6182 16.8427 24.75 17.1609 24.75 17.4922C24.75 17.8234 24.6181 18.1407 24.3838 18.375C24.1494 18.6093 23.8316 18.7412 23.5 18.7412H1.5C1.16844 18.7412 0.850623 18.6093 0.616211 18.375C0.381926 18.1407 0.250026 17.8234 0.25 17.4922C0.25 17.1609 0.381803 16.8427 0.616211 16.6084C0.850601 16.3742 1.16855 16.2432 1.5 16.2432ZM1.5 8.24609H23.5C23.8315 8.24609 24.1494 8.37805 24.3838 8.6123C24.6182 8.84661 24.75 9.16479 24.75 9.49609C24.7499 9.82725 24.6181 10.1447 24.3838 10.3789C24.1494 10.6132 23.8316 10.7451 23.5 10.7451H1.5C1.16844 10.7451 0.850623 10.6132 0.616211 10.3789C0.381903 10.1447 0.250103 9.82725 0.25 9.49609C0.25 9.16479 0.381803 8.84661 0.616211 8.6123C0.850615 8.37805 1.16848 8.24609 1.5 8.24609ZM1.5 0.25H23.5C23.8316 0.25 24.1494 0.381905 24.3838 0.616211C24.6181 0.850437 24.7499 1.16785 24.75 1.49902C24.75 1.83033 24.6182 2.14851 24.3838 2.38281C24.1494 2.61704 23.8315 2.74902 23.5 2.74902H1.5C1.1685 2.74902 0.85061 2.61704 0.616211 2.38281C0.381803 2.14851 0.25 1.83033 0.25 1.49902C0.250079 1.16785 0.381911 0.850437 0.616211 0.616211C0.850623 0.381905 1.16844 0.25 1.5 0.25Z" fill="#FBFBFB" stroke="#BA9957" stroke-width="0.5"/>
</svg>
